<?xml version='1.0' encoding='UTF-8' standalone='no'?>
<!-- Created with Fritzing (http://www.fritzing.org/) -->
<svg xmlns="http://www.w3.org/2000/svg" width="0.4in" y="0in" x="0in"  version="1.2" viewBox="0 0 400 330" baseProfile="tiny" height="0.33in">
    <desc >
        <referenceFile >generic_ic_dip_8_300mil_bread.svg</referenceFile>
    </desc>
    <g id="breadboard" gorn="0.1" >
        <rect width="400" id="middle" gorn="0.1.0" y="30" x="0"  height="270" fill="#303030"/>
        <rect width="400" id="top" gorn="0.1.1" y="30" x="0"  height="24.6" fill="#3D3D3D"/>
        <rect width="400" id="bottom" gorn="0.1.2" y="275.4" x="0"  height="24.6" fill="#000000"/>
        <polygon id="right" points="400,30,392.5,54.6,392.5,275.4,400,300" gorn="0.1.3"  fill="#141414"/>
        <polygon id="left" points="0,30,7.5,54.6,7.5,275.4,0,300" gorn="0.1.4"  fill="#1F1F1F"/>
        <polygon id="left-upper-rect" points="50,115,7.5,114.6,5.6,135.8,5.6,165,50,165" gorn="0.1.5"  fill="#1C1C1C"/>
        <polygon id="left-lower-rect" points="7.5,215.5,50,215.5,50,165,5.6,165,5.6,194.2" gorn="0.1.6"  fill="#383838"/>
        <path id="slot" d="M5.6,135.8l0,58.3c14.7,-1.7,26.2,-14,26.2,-29.2C31.8,149.7,20.4,137.5,5.6,135.8z" gorn="0.1.7"  fill="#262626"/>
        <path id="cover" d="M7.5,54.6L7.5,114.5c23.8,4.5,41.9,25.3,41.9,50.4c0,25.1,-18,46,-41.9,50.5L7.5,215.5l50,0L57.5,54.6L7.5,54.6z" gorn="0.1.8"  fill="#303030"/>
        <circle cy="234.7" cx="65"  r="20.6" fill="#212121"/>
        <text id="label" stroke="none" gorn="0.1.10" y="165" x="65" font-family="OCRA" text-anchor="start"  font-size="80" fill="#e6e6e6">IC</text>
        <rect width="30" id="connector0pin" gorn="0.1.11" y="286.6" x="35"  height="43.4" fill="#8C8C8C"/>
        <rect width="30" id="connector0terminal" gorn="0.1.12" y="300" x="35"  height="30" fill="#8C8C8C"/>
        <polygon points="35,286.6,35,306.6,65,306.6,85,297.4,85,286.6"  fill="#8C8C8C"/>
        <rect width="30" id="connector7pin" gorn="0.1.14" x="35"  height="43.4" fill="#8C8C8C"/>
        <rect width="30" id="connector7terminal" gorn="0.1.15" x="35"  height="30" fill="#8C8C8C"/>
        <polygon points="85,43.4,85,32.6,65,23.4,35,23.4,35,43.4"  fill="#8C8C8C"/>
        <rect width="30" id="connector3pin" gorn="0.1.17" y="286.6" x="335"  height="43.4" fill="#8C8C8C"/>
        <rect width="30" id="connector3terminal" gorn="0.1.18" y="300" x="335"  height="30" fill="#8C8C8C"/>
        <polygon points="315,286.6,315,297.4,335,306.6,365,306.6,365,286.6"  fill="#8C8C8C"/>
        <rect width="30" id="connector4pin" gorn="0.1.20" y="0" x="335"  height="43.4" fill="#8C8C8C"/>
        <rect width="30" id="connector4terminal" gorn="0.1.21" y="0" x="335"  height="30" fill="#8C8C8C"/>
        <polygon points="365,43.4,365,23.4,335,23.4,315,32.6,315,43.4"  fill="#8C8C8C"/>
        <rect width="30" id="connector6pin" gorn="0.1.23" y="0" x="135"  height="43.4" fill="#8C8C8C"/>
        <rect width="30" id="connector6terminal" gorn="0.1.24" x="135"  height="30" fill="#8C8C8C"/>
        <polygon points="185,43.4,185,32.6,165,23.4,135,23.4,115,32.6,115,43.4"  fill="#8C8C8C"/>
        <rect width="30" id="connector5pin" gorn="0.1.26" y="0" x="235"  height="43.4" fill="#8C8C8C"/>
        <rect width="30" id="connector5terminal" gorn="0.1.27" x="235"  height="30" fill="#8C8C8C"/>
        <polygon points="285,43.4,285,32.6,265,23.4,235,23.4,215,32.6,215,43.4"  fill="#8C8C8C"/>
        <rect width="30" id="connector1pin" gorn="0.1.29" y="286.6" x="135"  height="43.4" fill="#8C8C8C"/>
        <rect width="30" id="connector1terminal" gorn="0.1.30" y="300" x="135"  height="30" fill="#8C8C8C"/>
        <polygon points="115,286.6,115,297.4,135,306.6,165,306.6,185,297.4,185,286.6"  fill="#8C8C8C"/>
        <rect width="30" id="connector2pin" gorn="0.1.32" y="286.6" x="235"  height="43.4" fill="#8C8C8C"/>
        <rect width="30" id="connector2terminal" gorn="0.1.33" y="300" x="235"  height="30" fill="#8C8C8C"/>
        <polygon points="215,286.6,215,297.4,235,306.6,265,306.6,285,297.4,285,286.6"  fill="#8C8C8C"/>
    </g>
</svg>
